<svg width="572" height="150" viewBox="0 0 572 150" fill="none" xmlns="http://www.w3.org/2000/svg">
<path d="M180.545 81V26.0017H204.392C208.581 26.0017 212.099 26.5657 214.946 27.6936C217.81 28.8215 219.967 30.4148 221.418 32.4737C222.886 34.5325 223.62 36.9584 223.62 39.7513C223.62 41.7743 223.172 43.6184 222.277 45.2833C221.4 46.9483 220.164 48.3448 218.571 49.4727C216.978 50.5827 215.116 51.3525 212.985 51.7822V52.3193C215.348 52.4088 217.497 53.0085 219.43 54.1185C221.364 55.2106 222.904 56.7234 224.049 58.6569C225.195 60.5726 225.768 62.8284 225.768 65.4243C225.768 68.432 224.98 71.1085 223.405 73.4538C221.847 75.7992 219.627 77.6432 216.745 78.9859C213.862 80.3286 210.425 81 206.433 81H180.545ZM195.476 69.0765H202.458C204.965 69.0765 206.844 68.6111 208.098 67.6801C209.351 66.7312 209.977 65.3348 209.977 63.4908C209.977 62.2018 209.682 61.1097 209.091 60.2145C208.5 59.3194 207.659 58.639 206.567 58.1736C205.493 57.7081 204.195 57.4753 202.673 57.4753H195.476V69.0765ZM195.476 48.2374H201.599C202.906 48.2374 204.061 48.0315 205.063 47.6197C206.066 47.2079 206.844 46.6171 207.399 45.8473C207.972 45.0596 208.259 44.1017 208.259 42.9738C208.259 41.273 207.65 39.9751 206.433 39.0799C205.215 38.1669 203.676 37.7103 201.814 37.7103H195.476V48.2374ZM269.656 26.0017H284.587V61.235C284.587 65.4243 283.585 69.0497 281.579 72.1111C279.592 75.1546 276.817 77.5089 273.255 79.1739C269.692 80.821 265.556 81.6445 260.848 81.6445C256.103 81.6445 251.95 80.821 248.387 79.1739C244.824 77.5089 242.049 75.1546 240.062 72.1111C238.093 69.0497 237.108 65.4243 237.108 61.235V26.0017H252.039V59.946C252.039 61.6468 252.415 63.1685 253.167 64.5113C253.919 65.8361 254.958 66.8745 256.282 67.6264C257.625 68.3783 259.147 68.7543 260.848 68.7543C262.566 68.7543 264.088 68.3783 265.413 67.6264C266.738 66.8745 267.776 65.8361 268.528 64.5113C269.28 63.1685 269.656 61.6468 269.656 59.946V26.0017ZM297.948 81V39.7513H312.772V81H297.948ZM305.36 35.4545C303.355 35.4545 301.636 34.7921 300.204 33.4673C298.772 32.1425 298.056 30.5491 298.056 28.6872C298.056 26.8253 298.772 25.2319 300.204 23.9071C301.636 22.5822 303.355 21.9198 305.36 21.9198C307.383 21.9198 309.102 22.5822 310.516 23.9071C311.948 25.2319 312.664 26.8253 312.664 28.6872C312.664 30.5491 311.948 32.1425 310.516 33.4673C309.102 34.7921 307.383 35.4545 305.36 35.4545ZM326.16 81V26.0017H341.091V68.9691H363.327V81H326.16ZM396.573 81H375.412V26.0017H396.359C402.016 26.0017 406.903 27.1028 411.021 29.3048C415.157 31.489 418.344 34.64 420.581 38.7577C422.837 42.8575 423.965 47.7719 423.965 53.5009C423.965 59.2298 422.846 64.1532 420.608 68.2709C418.37 72.3707 415.202 75.5217 411.102 77.7237C407.002 79.9079 402.159 81 396.573 81ZM390.343 68.3246H396.036C398.758 68.3246 401.076 67.886 402.992 67.0087C404.925 66.1315 406.393 64.6187 407.396 62.4703C408.416 60.3219 408.927 57.3321 408.927 53.5009C408.927 49.6696 408.407 46.6798 407.369 44.5314C406.348 42.383 404.845 40.8702 402.857 39.993C400.888 39.1157 398.471 38.6771 395.607 38.6771H390.343V68.3246ZM437.138 81V39.7513H451.962V81H437.138ZM444.55 35.4545C442.545 35.4545 440.826 34.7921 439.394 33.4673C437.962 32.1425 437.246 30.5491 437.246 28.6872C437.246 26.8253 437.962 25.2319 439.394 23.9071C440.826 22.5822 442.545 21.9198 444.55 21.9198C446.573 21.9198 448.292 22.5822 449.706 23.9071C451.138 25.2319 451.854 26.8253 451.854 28.6872C451.854 30.5491 451.138 32.1425 449.706 33.4673C448.292 34.7921 446.573 35.4545 444.55 35.4545ZM465.35 81V26.0017H504.02V38.0326H480.281V47.4854H501.657V59.5163H480.281V81H465.35ZM513.306 26.0017H529.956L540.698 48.3448H541.128L551.869 26.0017H568.519L548.325 63.7056V81H533.501V63.7056L513.306 26.0017Z" fill="white"/>
<path d="M188.77 123H180.924V100.866H188.835C191.062 100.866 192.978 101.309 194.585 102.195C196.192 103.074 197.427 104.339 198.292 105.989C199.164 107.639 199.6 109.613 199.6 111.911C199.6 114.217 199.164 116.198 198.292 117.855C197.427 119.513 196.184 120.784 194.563 121.671C192.949 122.557 191.018 123 188.77 123ZM185.604 118.99H188.576C189.959 118.99 191.123 118.745 192.067 118.255C193.018 117.758 193.731 116.991 194.207 115.953C194.689 114.909 194.931 113.561 194.931 111.911C194.931 110.276 194.689 108.939 194.207 107.901C193.731 106.864 193.021 106.1 192.077 105.61C191.134 105.12 189.97 104.875 188.587 104.875H185.604V118.99ZM227.11 123V100.866H242.025V104.724H231.79V109.998H241.257V113.857H231.79V119.142H242.068V123H227.11ZM281.796 107.231C281.71 106.36 281.339 105.682 280.683 105.2C280.027 104.717 279.137 104.475 278.013 104.475C277.25 104.475 276.605 104.583 276.079 104.8C275.553 105.009 275.149 105.3 274.868 105.675C274.594 106.05 274.458 106.475 274.458 106.95C274.443 107.347 274.526 107.693 274.706 107.988C274.893 108.283 275.149 108.539 275.474 108.755C275.798 108.964 276.172 109.148 276.598 109.307C277.023 109.458 277.477 109.588 277.959 109.696L279.948 110.171C280.913 110.387 281.8 110.675 282.607 111.036C283.414 111.396 284.113 111.839 284.703 112.365C285.294 112.891 285.752 113.511 286.076 114.224C286.407 114.937 286.577 115.755 286.584 116.677C286.577 118.032 286.231 119.206 285.546 120.201C284.869 121.188 283.889 121.955 282.607 122.503C281.331 123.043 279.793 123.313 277.992 123.313C276.205 123.313 274.649 123.04 273.323 122.492C272.004 121.944 270.974 121.134 270.232 120.06C269.497 118.979 269.111 117.643 269.075 116.051H273.604C273.654 116.793 273.867 117.412 274.241 117.91C274.623 118.399 275.131 118.771 275.765 119.023C276.407 119.268 277.131 119.39 277.938 119.39C278.73 119.39 279.418 119.275 280.002 119.044C280.593 118.814 281.05 118.493 281.375 118.082C281.699 117.672 281.861 117.2 281.861 116.667C281.861 116.169 281.713 115.752 281.418 115.413C281.13 115.074 280.704 114.786 280.142 114.548C279.588 114.311 278.907 114.094 278.1 113.9L275.69 113.295C273.824 112.841 272.35 112.131 271.269 111.165C270.188 110.2 269.652 108.899 269.659 107.264C269.652 105.924 270.008 104.753 270.729 103.751C271.457 102.75 272.455 101.968 273.723 101.406C274.991 100.844 276.432 100.563 278.046 100.563C279.689 100.563 281.122 100.844 282.347 101.406C283.579 101.968 284.538 102.75 285.222 103.751C285.907 104.753 286.26 105.913 286.281 107.231H281.796ZM318.455 100.866V123H313.775V100.866H318.455ZM361.026 108.02C360.874 107.494 360.662 107.03 360.388 106.626C360.114 106.215 359.779 105.87 359.383 105.589C358.994 105.3 358.547 105.081 358.043 104.929C357.546 104.778 356.994 104.702 356.389 104.702C355.258 104.702 354.264 104.983 353.406 105.545C352.556 106.107 351.893 106.925 351.418 107.999C350.942 109.065 350.704 110.369 350.704 111.911C350.704 113.453 350.938 114.764 351.407 115.845C351.875 116.926 352.538 117.751 353.395 118.32C354.253 118.882 355.265 119.163 356.432 119.163C357.492 119.163 358.396 118.976 359.145 118.601C359.902 118.219 360.478 117.683 360.874 116.991C361.278 116.299 361.48 115.481 361.48 114.537L362.431 114.678H356.724V111.155H365.987V113.943C365.987 115.888 365.576 117.56 364.754 118.958C363.933 120.348 362.802 121.422 361.361 122.179C359.92 122.928 358.27 123.303 356.411 123.303C354.336 123.303 352.513 122.845 350.942 121.93C349.371 121.008 348.146 119.7 347.267 118.007C346.396 116.306 345.96 114.289 345.96 111.954C345.96 110.16 346.219 108.561 346.738 107.156C347.264 105.744 347.999 104.547 348.943 103.568C349.886 102.588 350.985 101.842 352.239 101.33C353.493 100.819 354.851 100.563 356.314 100.563C357.567 100.563 358.734 100.747 359.815 101.114C360.896 101.474 361.854 101.986 362.69 102.649C363.533 103.312 364.221 104.101 364.754 105.016C365.288 105.924 365.63 106.925 365.781 108.02H361.026ZM412.059 100.866V123H408.017L398.387 109.069H398.225V123H393.545V100.866H397.652L407.206 114.786H407.401V100.866H412.059ZM490.586 108.615H485.852C485.766 108.002 485.589 107.458 485.323 106.983C485.056 106.5 484.714 106.089 484.296 105.751C483.878 105.412 483.395 105.153 482.848 104.973C482.307 104.792 481.72 104.702 481.086 104.702C479.94 104.702 478.943 104.987 478.092 105.556C477.242 106.118 476.583 106.94 476.115 108.02C475.646 109.094 475.412 110.398 475.412 111.933C475.412 113.511 475.646 114.837 476.115 115.91C476.59 116.984 477.253 117.794 478.103 118.342C478.953 118.889 479.937 119.163 481.054 119.163C481.681 119.163 482.261 119.08 482.794 118.915C483.334 118.749 483.813 118.508 484.231 118.191C484.649 117.866 484.995 117.474 485.269 117.012C485.55 116.551 485.744 116.025 485.852 115.435L490.586 115.456C490.464 116.472 490.157 117.452 489.667 118.396C489.185 119.333 488.533 120.172 487.711 120.914C486.897 121.649 485.924 122.233 484.793 122.665C483.669 123.09 482.397 123.303 480.978 123.303C479.004 123.303 477.239 122.856 475.682 121.962C474.133 121.069 472.908 119.776 472.008 118.082C471.114 116.389 470.667 114.339 470.667 111.933C470.667 109.519 471.121 107.466 472.029 105.772C472.937 104.079 474.169 102.789 475.725 101.903C477.282 101.01 479.033 100.563 480.978 100.563C482.261 100.563 483.449 100.743 484.545 101.103C485.647 101.464 486.623 101.99 487.474 102.681C488.324 103.366 489.015 104.205 489.549 105.2C490.089 106.194 490.435 107.332 490.586 108.615ZM538.326 111.933C538.326 114.347 537.868 116.4 536.953 118.093C536.045 119.786 534.806 121.08 533.235 121.973C531.672 122.859 529.914 123.303 527.961 123.303C525.994 123.303 524.229 122.856 522.665 121.962C521.102 121.069 519.866 119.776 518.958 118.082C518.05 116.389 517.596 114.339 517.596 111.933C517.596 109.519 518.05 107.466 518.958 105.772C519.866 104.079 521.102 102.789 522.665 101.903C524.229 101.01 525.994 100.563 527.961 100.563C529.914 100.563 531.672 101.01 533.235 101.903C534.806 102.789 536.045 104.079 536.953 105.772C537.868 107.466 538.326 109.519 538.326 111.933ZM533.581 111.933C533.581 110.369 533.347 109.051 532.879 107.977C532.417 106.904 531.765 106.089 530.922 105.535C530.079 104.98 529.092 104.702 527.961 104.702C526.83 104.702 525.843 104.98 525 105.535C524.157 106.089 523.501 106.904 523.033 107.977C522.572 109.051 522.341 110.369 522.341 111.933C522.341 113.496 522.572 114.815 523.033 115.888C523.501 116.962 524.157 117.776 525 118.331C525.843 118.886 526.83 119.163 527.961 119.163C529.092 119.163 530.079 118.886 530.922 118.331C531.765 117.776 532.417 116.962 532.879 115.888C533.347 114.815 533.581 113.496 533.581 111.933ZM567.044 123.281C566.33 123.281 565.718 123.029 565.206 122.524C564.702 122.013 564.45 121.4 564.45 120.687C564.45 119.981 564.702 119.376 565.206 118.871C565.718 118.367 566.33 118.115 567.044 118.115C567.735 118.115 568.341 118.367 568.859 118.871C569.378 119.376 569.637 119.981 569.637 120.687C569.637 121.163 569.515 121.599 569.27 121.995C569.032 122.384 568.719 122.697 568.33 122.935C567.941 123.166 567.512 123.281 567.044 123.281Z" fill="white"/>
<rect y="49.666" width="99.3333" height="99.3333" fill="white"/>
<path d="M100 99H50L100 149V99Z" fill="#7A7A7A"/>
<path d="M49.668 0H149.001V99.3333H49.668V0Z" fill="#D9D9D9"/>
<path d="M100 148.5L50 99V0" stroke="#FE0105" stroke-width="3"/>
</svg>
